<svg xmlns="http://www.w3.org/2000/svg" xmlns:xlink="http://www.w3.org/1999/xlink" contentStyleType="text/css" data-diagram-type="SEQUENCE" height="516px" preserveAspectRatio="none" style="width:1042px;height:516px;background:#FFFFFF;" version="1.1" viewBox="0 0 1042 516" width="1042px" zoomAndPan="magnify"><?plantuml 1.2026.7beta1?><defs/><g><g class="title" data-source-line="1"><text fill="#000000" font-family="sans-serif" font-size="14" font-weight="700" lengthAdjust="spacing" textLength="221.1426" x="407.3333" y="27.9951">OpenTimezone request flow</text></g><g class="participant-lifeline" data-entity-uid="part1" data-qualified-name="Client" data-source-line="6" id="part1-lifeline"><g><title>API Client</title><rect fill="#000000" fill-opacity="0.00000" height="283.3281" width="8" x="72.7012" y="134.8906"/><line style="stroke:#181818;stroke-width:0.5;stroke-dasharray:5,5;" x1="76" x2="76" y1="134.8906" y2="418.2188"/></g></g><g class="participant-lifeline" data-entity-uid="part2" data-qualified-name="Api" data-source-line="7" id="part2-lifeline"><g><title>OpenTimezone API</title><rect fill="#000000" fill-opacity="0.00000" height="283.3281" width="8" x="369.6123" y="134.8906"/><line style="stroke:#181818;stroke-width:0.5;stroke-dasharray:5,5;" x1="373.5703" x2="373.5703" y1="134.8906" y2="418.2188"/></g></g><g class="participant-lifeline" data-entity-uid="part3" data-qualified-name="Core" data-source-line="8" id="part3-lifeline"><g><title>Conversion Logic</title><rect fill="#000000" fill-opacity="0.00000" height="283.3281" width="8" x="583.8071" y="134.8906"/><line style="stroke:#181818;stroke-width:0.5;stroke-dasharray:5,5;" x1="586.9175" x2="586.9175" y1="134.8906" y2="418.2188"/></g></g><g class="participant-lifeline" data-entity-uid="part4" data-qualified-name="TimeZoneInfo" data-source-line="9" id="part4-lifeline"><g><title>.NET TimeZoneInfo</title><rect fill="#000000" fill-opacity="0.00000" height="283.3281" width="8" x="816.4863" y="134.8906"/><line style="stroke:#181818;stroke-width:0.5;stroke-dasharray:5,5;" x1="819.6855" x2="819.6855" y1="134.8906" y2="418.2188"/></g></g><g class="participant-lifeline" data-entity-uid="part5" data-qualified-name="TzData" data-source-line="10" id="part5-lifeline"><g><title>Linux tzdata</title><rect fill="#000000" fill-opacity="0.00000" height="283.3281" width="8" x="981.5376" y="134.8906"/><line style="stroke:#181818;stroke-width:0.5;stroke-dasharray:5,5;" x1="985.2661" x2="985.2661" y1="134.8906" y2="418.2188"/></g></g><g class="participant participant-head" data-entity-uid="part1" data-qualified-name="Client" data-source-line="6" id="part1-head"><text fill="#000000" font-family="sans-serif" font-size="14" lengthAdjust="spacing" textLength="67.1289" x="40.1367" y="115.292">API Client</text><text fill="#000000" font-family="sans-serif" font-size="14" lengthAdjust="spacing" textLength="137.4023" x="5" y="131.5889">app, website, script</text><ellipse cx="76.7012" cy="50.7969" fill="#E2E2F0" rx="8" ry="8" style="stroke:#181818;stroke-width:0.5;"/><path d="M76.7012,58.7969 L76.7012,85.7969 M63.7012,66.7969 L89.7012,66.7969 M76.7012,85.7969 L63.7012,100.7969 M76.7012,85.7969 L89.7012,100.7969" fill="none" style="stroke:#181818;stroke-width:0.5;"/></g><g class="participant participant-tail" data-entity-uid="part1" data-qualified-name="Client" data-source-line="6" id="part1-tail"><text fill="#000000" font-family="sans-serif" font-size="14" lengthAdjust="spacing" textLength="67.1289" x="40.1367" y="430.2139">API Client</text><text fill="#000000" font-family="sans-serif" font-size="14" lengthAdjust="spacing" textLength="137.4023" x="5" y="446.5107">app, website, script</text><ellipse cx="76.7012" cy="458.3125" fill="#E2E2F0" rx="8" ry="8" style="stroke:#181818;stroke-width:0.5;"/><path d="M76.7012,466.3125 L76.7012,493.3125 M63.7012,474.3125 L89.7012,474.3125 M76.7012,493.3125 L63.7012,508.3125 M76.7012,493.3125 L89.7012,508.3125" fill="none" style="stroke:#181818;stroke-width:0.5;"/></g><g class="participant participant-head" data-entity-uid="part2" data-qualified-name="Api" data-source-line="7" id="part2-head"><rect fill="#E2E2F0" height="46.5938" rx="2.5" ry="2.5" style="stroke:#181818;stroke-width:0.5;" width="146.084" x="300.5703" y="87.2969"/><text fill="#000000" font-family="sans-serif" font-size="14" lengthAdjust="spacing" textLength="132.084" x="307.5703" y="107.292">OpenTimezone API</text><text fill="#000000" font-family="sans-serif" font-size="14" lengthAdjust="spacing" textLength="99.3467" x="323.939" y="123.5889">POST /convert</text></g><g class="participant participant-tail" data-entity-uid="part2" data-qualified-name="Api" data-source-line="7" id="part2-tail"><rect fill="#E2E2F0" height="46.5938" rx="2.5" ry="2.5" style="stroke:#181818;stroke-width:0.5;" width="146.084" x="300.5703" y="417.2188"/><text fill="#000000" font-family="sans-serif" font-size="14" lengthAdjust="spacing" textLength="132.084" x="307.5703" y="437.2139">OpenTimezone API</text><text fill="#000000" font-family="sans-serif" font-size="14" lengthAdjust="spacing" textLength="99.3467" x="323.939" y="453.5107">POST /convert</text></g><g class="participant participant-head" data-entity-uid="part3" data-qualified-name="Core" data-source-line="8" id="part3-head"><rect fill="#E2E2F0" height="46.5938" rx="2.5" ry="2.5" style="stroke:#181818;stroke-width:0.5;" width="133.7793" x="520.9175" y="87.2969"/><text fill="#000000" font-family="sans-serif" font-size="14" lengthAdjust="spacing" textLength="119.7793" x="527.9175" y="107.292">Conversion Logic</text><text fill="#000000" font-family="sans-serif" font-size="14" lengthAdjust="spacing" textLength="105.2529" x="535.1807" y="123.5889">Timezone.Core</text></g><g class="participant participant-tail" data-entity-uid="part3" data-qualified-name="Core" data-source-line="8" id="part3-tail"><rect fill="#E2E2F0" height="46.5938" rx="2.5" ry="2.5" style="stroke:#181818;stroke-width:0.5;" width="133.7793" x="520.9175" y="417.2188"/><text fill="#000000" font-family="sans-serif" font-size="14" lengthAdjust="spacing" textLength="119.7793" x="527.9175" y="437.2139">Conversion Logic</text><text fill="#000000" font-family="sans-serif" font-size="14" lengthAdjust="spacing" textLength="105.2529" x="535.1807" y="453.5107">Timezone.Core</text></g><g class="participant participant-head" data-entity-uid="part4" data-qualified-name="TimeZoneInfo" data-source-line="9" id="part4-head"><rect fill="#E2E2F0" height="30.2969" rx="2.5" ry="2.5" style="stroke:#181818;stroke-width:0.5;" width="147.6016" x="746.6855" y="103.5938"/><text fill="#000000" font-family="sans-serif" font-size="14" lengthAdjust="spacing" textLength="133.6016" x="753.6855" y="123.5889">.NET TimeZoneInfo</text></g><g class="participant participant-tail" data-entity-uid="part4" data-qualified-name="TimeZoneInfo" data-source-line="9" id="part4-tail"><rect fill="#E2E2F0" height="30.2969" rx="2.5" ry="2.5" style="stroke:#181818;stroke-width:0.5;" width="147.6016" x="746.6855" y="417.2188"/><text fill="#000000" font-family="sans-serif" font-size="14" lengthAdjust="spacing" textLength="133.6016" x="753.6855" y="437.2139">.NET TimeZoneInfo</text></g><g class="participant participant-head" data-entity-uid="part5" data-qualified-name="TzData" data-source-line="10" id="part5-head"><text fill="#000000" font-family="sans-serif" font-size="14" lengthAdjust="spacing" textLength="86.543" x="939.2661" y="131.5889">Linux tzdata</text><path d="M967.5376,82.5938 C967.5376,72.5938 985.5376,72.5938 985.5376,72.5938 C985.5376,72.5938 1003.5376,72.5938 1003.5376,82.5938 L1003.5376,108.5938 C1003.5376,118.5938 985.5376,118.5938 985.5376,118.5938 C985.5376,118.5938 967.5376,118.5938 967.5376,108.5938 L967.5376,82.5938" fill="#E2E2F0" style="stroke:#181818;stroke-width:0.5;"/><path d="M967.5376,82.5938 C967.5376,92.5938 985.5376,92.5938 985.5376,92.5938 C985.5376,92.5938 1003.5376,92.5938 1003.5376,82.5938" fill="none" style="stroke:#181818;stroke-width:0.5;"/></g><g class="participant participant-tail" data-entity-uid="part5" data-qualified-name="TzData" data-source-line="10" id="part5-tail"><text fill="#000000" font-family="sans-serif" font-size="14" lengthAdjust="spacing" textLength="86.543" x="939.2661" y="430.2139">Linux tzdata</text><path d="M967.5376,443.5156 C967.5376,433.5156 985.5376,433.5156 985.5376,433.5156 C985.5376,433.5156 1003.5376,433.5156 1003.5376,443.5156 L1003.5376,469.5156 C1003.5376,479.5156 985.5376,479.5156 985.5376,479.5156 C985.5376,479.5156 967.5376,479.5156 967.5376,469.5156 L967.5376,443.5156" fill="#E2E2F0" style="stroke:#181818;stroke-width:0.5;"/><path d="M967.5376,443.5156 C967.5376,453.5156 985.5376,453.5156 985.5376,453.5156 C985.5376,453.5156 1003.5376,453.5156 1003.5376,443.5156" fill="none" style="stroke:#181818;stroke-width:0.5;"/></g><g class="message" data-entity-1="part1" data-entity-2="part2" data-source-line="12" id="msg1"><polygon fill="#181818" points="361.6123,177.1563,371.6123,181.1563,361.6123,185.1563,365.6123,181.1563" style="stroke:#181818;stroke-width:1;stroke-linejoin:miter;stroke-miterlimit:10;"/><line style="stroke:#181818;stroke-width:1;" x1="76.7012" x2="367.6123" y1="181.1563" y2="181.1563"/><text fill="#000000" font-family="sans-serif" font-size="13" lengthAdjust="spacing" textLength="122.751" x="83.7012" y="160.9575">Send JSON request</text><text fill="#000000" font-family="sans-serif" font-size="13" lengthAdjust="spacing" textLength="272.9111" x="83.7012" y="176.0903">{ dateTime, fromTimezone, toTimezone }</text></g><g class="message" data-entity-1="part2" data-entity-2="part3" data-source-line="13" id="msg2"><polygon fill="#181818" points="575.8071,206.2891,585.8071,210.2891,575.8071,214.2891,579.8071,210.2891" style="stroke:#181818;stroke-width:1;stroke-linejoin:miter;stroke-miterlimit:10;"/><line style="stroke:#181818;stroke-width:1;" x1="373.6123" x2="581.8071" y1="210.2891" y2="210.2891"/><text fill="#000000" font-family="sans-serif" font-size="13" lengthAdjust="spacing" textLength="190.1948" x="380.6123" y="205.2231">Validate and process request</text></g><g class="message" data-entity-1="part3" data-entity-2="part4" data-source-line="14" id="msg3"><polygon fill="#181818" points="808.4863,235.4219,818.4863,239.4219,808.4863,243.4219,812.4863,239.4219" style="stroke:#181818;stroke-width:1;stroke-linejoin:miter;stroke-miterlimit:10;"/><line style="stroke:#181818;stroke-width:1;" x1="587.8071" x2="814.4863" y1="239.4219" y2="239.4219"/><text fill="#000000" font-family="sans-serif" font-size="13" lengthAdjust="spacing" textLength="208.6792" x="594.8071" y="234.356">Resolve and convert time zones</text></g><g class="message" data-entity-1="part4" data-entity-2="part5" data-source-line="15" id="msg4"><polygon fill="#181818" points="973.5376,264.5547,983.5376,268.5547,973.5376,272.5547,977.5376,268.5547" style="stroke:#181818;stroke-width:1;stroke-linejoin:miter;stroke-miterlimit:10;"/><line style="stroke:#181818;stroke-width:1;" x1="820.4863" x2="979.5376" y1="268.5547" y2="268.5547"/><text fill="#000000" font-family="sans-serif" font-size="13" lengthAdjust="spacing" textLength="137.998" x="827.4863" y="263.4888">Read time zone rules</text></g><g class="message" data-entity-1="part5" data-entity-2="part4" data-source-line="16" id="msg5"><polygon fill="#181818" points="831.4863,293.6875,821.4863,297.6875,831.4863,301.6875,827.4863,297.6875" style="stroke:#181818;stroke-width:1;stroke-linejoin:miter;stroke-miterlimit:10;"/><line style="stroke:#181818;stroke-width:1;stroke-dasharray:2,2;" x1="825.4863" x2="984.5376" y1="297.6875" y2="297.6875"/><text fill="#000000" font-family="sans-serif" font-size="13" lengthAdjust="spacing" textLength="141.0513" x="837.4863" y="292.6216">Offsets and DST rules</text></g><g class="message" data-entity-1="part4" data-entity-2="part3" data-source-line="17" id="msg6"><polygon fill="#181818" points="598.8071,322.8203,588.8071,326.8203,598.8071,330.8203,594.8071,326.8203" style="stroke:#181818;stroke-width:1;stroke-linejoin:miter;stroke-miterlimit:10;"/><line style="stroke:#181818;stroke-width:1;stroke-dasharray:2,2;" x1="592.8071" x2="819.4863" y1="326.8203" y2="326.8203"/><text fill="#000000" font-family="sans-serif" font-size="13" lengthAdjust="spacing" textLength="139.4517" x="604.8071" y="321.7544">Converted Date/Time</text></g><g class="message" data-entity-1="part3" data-entity-2="part2" data-source-line="18" id="msg7"><polygon fill="#181818" points="384.6123,351.9531,374.6123,355.9531,384.6123,359.9531,380.6123,355.9531" style="stroke:#181818;stroke-width:1;stroke-linejoin:miter;stroke-miterlimit:10;"/><line style="stroke:#181818;stroke-width:1;stroke-dasharray:2,2;" x1="378.6123" x2="586.8071" y1="355.9531" y2="355.9531"/><text fill="#000000" font-family="sans-serif" font-size="13" lengthAdjust="spacing" textLength="139.4517" x="390.6123" y="350.8872">Converted Date/Time</text></g><g class="message" data-entity-1="part2" data-entity-2="part1" data-source-line="19" id="msg8"><polygon fill="#181818" points="87.7012,396.2188,77.7012,400.2188,87.7012,404.2188,83.7012,400.2188" style="stroke:#181818;stroke-width:1;stroke-linejoin:miter;stroke-miterlimit:10;"/><line style="stroke:#181818;stroke-width:1;stroke-dasharray:2,2;" x1="81.7012" x2="372.6123" y1="400.2188" y2="400.2188"/><text fill="#000000" font-family="sans-serif" font-size="13" lengthAdjust="spacing" textLength="95.5068" x="93.7012" y="380.02">JSON response</text><text fill="#000000" font-family="sans-serif" font-size="13" lengthAdjust="spacing" textLength="86.3345" x="93.7012" y="395.1528">{ dateTime }</text></g><?plantuml-src RP8nRy8m48Lt_ueJSu2TeHA53bGKK44TgYmckL2hmNPz3gce-EyznmGIjPlb-zwxksTxvKk4jKMzKqSy6utWyAj2yb2KfXQ2FfMsqiaZq8VCJQtq0GfP4dOg3iaQJVY2HFA0ZyZAgNEc1kyg549ctZWOJ3SBc9KAjK-rj3Q16lUaF2P0cLFM3q3I5H1ix5MchDGU1htns2NLc_Ls1-FCw1Ewg9jQrHVDcY8fes5f3YfBRnQZcN4Oc_6XhngjddOGm7S65xem3TUz4BdqSYy9OR1Kkle6VmutaJlF-IX4N0A63s4icC0MTGxFs_Mg3JVLFy0g3CO95CuSs-4IyEQswqK4FTk4GTddJPOgo42odtKcuy1RIz4mp7Q7PSqhaYbFKN8D33mZ43gGwD51tQpGw6H-1y5LPQ1ZTVYtpRee23qrRURyE5U-vtvV93wEHsPvdN70hlFVCliFQT88BZ7VIPjf_7xTKE7o2m00?></g></svg>